HIERARCHY
ROOT Hips
{
	OFFSET	0.00	0.00	0.00
	CHANNELS 6 Xposition Yposition Zposition Zrotation Xrotation Yrotation
	JOINT LeftUpLeg
	{
		OFFSET	 0.126116	-0.065224	 0.014019
		CHANNELS 3 Zrotation Xrotation Yrotation
		JOINT LeftLeg
		{
			OFFSET	 0.000000	 0.569914	 0.000000
			CHANNELS 3 Zrotation Xrotation Yrotation
			JOINT LeftFoot
			{
				OFFSET	 0.000000	 0.544423	 0.000000
				CHANNELS 3 Zrotation Xrotation Yrotation
				JOINT LeftToeBase
				{
					OFFSET	 0.000000	 0.207117	 0.000000
					CHANNELS 3 Zrotation Xrotation Yrotation
					End Site
					{
						OFFSET	 0.000000	 0.207117	 0.000000
					}
				}
			}
		}
	}
	JOINT RightUpLeg
	{
		OFFSET	-0.124023	-0.065224	 0.008373
		CHANNELS 3 Zrotation Xrotation Yrotation
		JOINT RightLeg
		{
			OFFSET	 0.000000	 0.570047	 0.000000
			CHANNELS 3 Zrotation Xrotation Yrotation
			JOINT RightFoot
			{
				OFFSET	 0.000000	 0.544354	 0.000000
				CHANNELS 3 Zrotation Xrotation Yrotation
				JOINT RightToeBase
				{
					OFFSET	 0.000000	 0.207540	 0.000000
					CHANNELS 3 Zrotation Xrotation Yrotation
					End Site
					{
						OFFSET	 0.000000	 0.207540	 0.000000
					}
				}
			}
		}
	}
	JOINT Spine
	{
		OFFSET	 0.000184	 0.117403	 0.007763
		CHANNELS 3 Zrotation Xrotation Yrotation
		JOINT Spine1
		{
			OFFSET	 0.000000	 0.137269	 0.000000
			CHANNELS 3 Zrotation Xrotation Yrotation
			JOINT Spine2
			{
				OFFSET	 0.000000	 0.156879	 0.000000
				CHANNELS 3 Zrotation Xrotation Yrotation
				JOINT LeftShoulder
				{
					OFFSET	 0.080501	 0.160143	 0.002496
					CHANNELS 3 Zrotation Xrotation Yrotation
					JOINT LeftArm
					{
						OFFSET	 0.000000	 0.164363	 0.000000
						CHANNELS 3 Zrotation Xrotation Yrotation
						JOINT LeftForeArm
						{
							OFFSET	 0.000000	 0.364576	 0.000000
							CHANNELS 3 Zrotation Xrotation Yrotation
							JOINT LeftHand
							{
								OFFSET	 0.000000	 0.360812	 0.000000
								CHANNELS 3 Zrotation Xrotation Yrotation
								JOINT LeftHandIndex1
								{
									OFFSET	 0.000000	 0.086006	 0.000000
									CHANNELS 3 Zrotation Xrotation Yrotation
									JOINT LeftHandIndex2
									{
										OFFSET	 0.000000	 0.047237	 0.000000
										CHANNELS 3 Zrotation Xrotation Yrotation
										JOINT LeftHandIndex3
										{
											OFFSET	-0.004284	 0.038165	 0.000551
											CHANNELS 3 Zrotation Xrotation Yrotation
											End Site
											{
												OFFSET	-0.004284	 0.038165	 0.000551
											}
										}
									}
								}
							}
						}
					}
				}
				JOINT Neck
				{
					OFFSET	 0.000000	 0.176489	 0.000000
					CHANNELS 3 Zrotation Xrotation Yrotation
					JOINT Head
					{
						OFFSET	 0.000000	 0.077941	 0.001747
						CHANNELS 3 Zrotation Xrotation Yrotation
						End Site
						{
							OFFSET	 0.000000	 0.077941	 0.001747
						}
					}
				}
				JOINT RightShoulder
				{
					OFFSET	-0.080363	 0.159706	-0.000306
					CHANNELS 3 Zrotation Xrotation Yrotation
					JOINT RightArm
					{
						OFFSET	 0.000000	 0.164196	 0.000000
						CHANNELS 3 Zrotation Xrotation Yrotation
						JOINT RightForeArm
						{
							OFFSET	 0.000000	 0.365611	 0.000000
							CHANNELS 3 Zrotation Xrotation Yrotation
							JOINT RightHand
							{
								OFFSET	 0.000000	 0.360648	 0.000000
								CHANNELS 3 Zrotation Xrotation Yrotation
								JOINT RightHandIndex1
								{
									OFFSET	 0.000000	 0.069977	 0.000000
									CHANNELS 3 Zrotation Xrotation Yrotation
									JOINT RightHandIndex2
									{
										OFFSET	 0.000000	 0.052305	 0.000000
										CHANNELS 3 Zrotation Xrotation Yrotation
										JOINT RightHandIndex3
										{
											OFFSET	 0.009002	 0.042196	 0.000782
											CHANNELS 3 Zrotation Xrotation Yrotation
											End Site
											{
												OFFSET	 0.009002	 0.042196	 0.000782
											}
										}
									}
								}
							}
						}
					}
				}
			}
		}
	}
}
MOTION
Frames:    4
Frame Time: 0.03333334
-0.000683	 1.269457	-0.008744	-0.041229	 3.192058	 178.774200	-176.870500	 2.887053	-21.995770	 2.988833	-14.794450	 2.834911	-5.731977	 68.844910	 6.812371	 1.331492	 28.938720	-2.729976	 176.321200	 4.098457	 25.482840	-5.071483	-16.258450	-6.477903	 3.140471	 70.126200	-1.878449	-1.305371	 28.580710	 2.601743	-1.167885	 3.494522	 1.864724	-1.597194	 2.976653	 0.161773	-1.577058	-1.228827	-4.802505	-113.447200	 5.120203	 92.998790	 13.456980	 52.373890	 32.309720	 5.096279	-0.263321	-0.072103	 5.142774	-6.426414	-8.425655	-6.580301	 5.266122	 0.000000	 0.000000	 0.000000	 0.000000	 0.000000	 0.000000	 0.000000	 3.840372	-0.668061	-0.253378	 3.250634	 1.157300	 0.386145	 114.203900	-4.415927	-88.491500	-47.718460	 7.628390	 47.060960	-88.356160	-2.252119	-2.129873	-25.773820	-10.768570	-29.123890	-0.359779	 10.582380	 0.744568	 11.977790	 9.317247	-2.096052	-8.359141	 3.150304	 0.104227
-0.000457	 1.269450	-0.008896	 0.024497	 3.130490	 178.715000	-176.772700	 2.979658	-22.059640	 3.011850	-14.903250	 2.815314	-5.848620	 68.897520	 6.905913	 1.331492	 28.938720	-2.729976	 176.400900	 4.143596	 25.451840	-5.061252	-16.227470	-6.517053	 3.045436	 70.137610	-1.760390	-1.305388	 28.580810	 2.597354	-1.147855	 3.379214	 1.872526	-1.524611	 2.957675	 0.187201	-1.613480	-1.241255	-4.793418	-113.447300	 5.110912	 92.996740	 13.121840	 52.347700	 32.640610	 5.068442	-0.261978	-0.072268	 5.309515	-6.359264	-8.496175	-6.580301	 5.266122	 0.000000	 0.000000	 0.000000	 0.000000	 0.000000	 0.000000	 0.000000	 3.855514	-0.702807	-0.258087	 3.307659	 1.176879	 0.353415	 114.201200	-4.397468	-88.504850	-46.497730	 6.129445	 45.944960	-85.832370	-2.247083	-2.030858	-29.844210	-9.584184	-28.548540	-0.359776	 10.582280	 0.744568	 11.977790	 9.317156	-2.096034	-8.359139	 3.150255	 0.104232
-0.000248	 1.269445	-0.009034	 0.082374	 3.075085	 178.663600	-176.686900	 3.061516	-22.107710	 3.031926	-14.998020	 2.798546	-5.933176	 68.944270	 6.967080	 1.331492	 28.938720	-2.729976	 176.472200	 4.184072	 25.420390	-5.052216	-16.200070	-6.551053	 2.950265	 70.147740	-1.644105	-1.305403	 28.580890	 2.593558	-1.115312	 3.308331	 1.879550	-1.492909	 2.880834	 0.210911	-1.630365	-1.223934	-4.785335	-113.447400	 5.102872	 92.994970	 12.817910	 52.320690	 32.939390	 5.044663	-0.260719	-0.072338	 5.461090	-6.302299	-8.555306	-6.580301	 5.266122	 0.000000	 0.000000	 0.000000	 0.000000	 0.000000	 0.000000	 0.000000	 3.868608	-0.732859	-0.262151	 3.356997	 1.193829	 0.325053	 114.198900	-4.381515	-88.516390	-45.545030	 4.750391	 44.995280	-83.339420	-2.237837	-1.933241	-33.669820	-8.674377	-28.072250	-0.359774	 10.582200	 0.744568	 11.977790	 9.317076	-2.096018	-8.359138	 3.150213	 0.104236
-0.000027	 1.269443	-0.009177	 0.142512	 3.016634	 178.611500	-176.597300	 3.145794	-22.159320	 3.052177	-15.093560	 2.781691	-6.026267	 68.991440	 7.036588	 1.331492	 28.938720	-2.729976	 176.545700	 4.225516	 25.393390	-5.042089	-16.169370	-6.585268	 2.865767	 70.156460	-1.540297	-1.305418	 28.580980	 2.589723	-1.080612	 3.234179	 1.887567	-1.463002	 2.800495	 0.236017	-1.646418	-1.205159	-4.777158	-113.447600	 5.094738	 92.993190	 12.499760	 52.291440	 33.249230	 5.019070	-0.259376	-0.072451	 5.621149	-6.246563	-8.611194	-6.580301	 5.266122	 0.000000	 0.000000	 0.000000	 0.000000	 0.000000	 0.000000	 0.000000	 3.881835	-0.763224	-0.266251	 3.406871	 1.210898	 0.296388	 114.196500	-4.365376	-88.528050	-44.695440	 3.288893	 44.028390	-80.532050	-2.222411	-1.824033	-37.810210	-7.871704	-27.635900	-0.359771	 10.582120	 0.744568	 11.977790	 9.316997	-2.096002	-8.359138	 3.150170	 0.104240
